<svg xmlns="http://www.w3.org/2000/svg" shape-rendering="geometricPrecision" text-rendering="geometricPrecision" image-rendering="optimizeQuality" fill-rule="evenodd" clip-rule="evenodd" viewBox="0 0 166 511.149"><path fill="#9BCCDE" fill-rule="nonzero" d="M21.786 115.418h122.428a3.2 3.2 0 013.199 3.199v328.12c0 17.715-7.248 33.82-18.92 45.493-11.673 11.672-27.778 18.919-45.493 18.919h-1.447c-17.317 0-33.062-7.084-44.471-18.494-11.41-11.41-18.495-27.154-18.495-44.471V118.617a3.2 3.2 0 013.199-3.199z"/><path fill="#DAF6FF" d="M21.786 118.617h122.428v328.12c0 33.664-27.55 61.213-61.214 61.213h-1.447c-32.868 0-59.767-26.894-59.767-59.766V118.617z"/><path fill="#E83436" d="M2.822 107.532h6.222V17.627a8.897 8.897 0 012.809-6.483V8.92c0-4.906 4.013-8.92 8.919-8.92h124.045c4.907 0 8.921 4.014 8.921 8.92v1.97a8.909 8.909 0 013.089 6.737v89.905h6.351a2.83 2.83 0 012.822 2.822v7.906a2.83 2.83 0 01-2.822 2.822H2.822A2.83 2.83 0 010 118.26v-7.906a2.83 2.83 0 012.822-2.822z"/><path fill="#B00E11" fill-rule="nonzero" d="M22.352 18.475v84.13h-3.688v-84.13h3.688zm124.984 0v84.13h-3.688v-84.13h3.688zm-13.888 0v84.13h-3.688v-84.13h3.688zm-13.886 0v84.13h-3.688v-84.13h3.688zm-13.887 0v84.13h-3.688v-84.13h3.688zm-13.888 0v84.13h-3.689v-84.13h3.689zm-13.887 0v84.13h-3.688v-84.13H77.9zm-13.887 0v84.13h-3.688v-84.13h3.688zm-13.887 0v84.13h-3.688v-84.13h3.688zm-13.887 0v84.13h-3.688v-84.13h3.688z"/><path fill="#FF2929" d="M28.994 256.929h108.012v186.972c0 33.661-20.345 56.409-54.006 56.409h-1.446c-32.866 0-52.56-22.09-52.56-54.963V256.929z"/><path fill="#FF3939" d="M50.342 256.93h86.665V443.9c0 4.152-.312 8.146-.919 11.948-8.485 5.713-19.189 8.878-31.739 8.878h-1.447c-32.864 0-52.56-22.091-52.56-54.963V256.93z"/><path fill="#999" fill-rule="nonzero" d="M97.317 154.297h46.963v210.437H97.317c-4.507 0-8.606-1.845-11.579-4.817-2.973-2.974-4.82-7.074-4.82-11.582v-177.64c0-4.506 1.845-8.605 4.817-11.579 2.976-2.974 7.076-4.819 11.582-4.819z"/><path fill="#fff" d="M98.118 155.898h46.147v207.235H98.118c-8.57 0-15.598-7.018-15.598-15.597v-176.04c0-8.579 7.019-15.598 15.598-15.598z"/></svg>